<svg width="136" height="32" viewBox="0 0 136 32" fill="none" xmlns="http://www.w3.org/2000/svg">
<path d="M8.66343 16.4905H11.6677C11.8424 16.4905 11.9472 16.3504 11.9472 16.1754V12.4292C11.9472 12.2541 11.8074 12.1141 11.6328 12.1141H8.6285C8.45383 12.1141 8.3141 11.974 8.3141 11.799V6.82737C8.3141 6.65231 8.17437 6.51227 7.9997 6.51227H6.46264C6.32291 6.51227 6.18318 6.65231 6.18318 6.79236C6.00851 8.92804 5.06532 10.8186 3.59812 12.2191C2.65492 13.0944 1.50213 13.7596 0.209599 14.1447C0.0698659 14.1797 0 14.2847 0 14.4248V16.1754C0 16.3504 0.139733 16.4905 0.314399 16.4905H3.31865C3.49332 16.4905 3.63305 16.6305 3.63305 16.8056C3.63305 21.6021 3.63305 26.3286 3.66799 26.6437C4.08718 31.2302 7.5805 31.9304 9.39703 31.9304C10.5498 31.9304 11.4232 31.7203 11.8074 31.6153C11.9472 31.5803 12.017 31.4752 12.017 31.3352V27.9741C12.017 27.7991 11.8773 27.659 11.7026 27.659C11.4581 27.659 11.1088 27.694 10.9341 27.694C9.2573 27.694 8.45383 26.8888 8.4189 25.2082C8.4189 24.0529 8.4189 18.171 8.4189 16.8056C8.34903 16.5955 8.48877 16.4905 8.66343 16.4905Z" fill="#60391C"/>
<path d="M7.30079 4.90156C8.65131 4.90156 9.74612 3.80431 9.74612 2.45078C9.74612 1.09725 8.65131 0 7.30079 0C5.95028 0 4.85547 1.09725 4.85547 2.45078C4.85547 3.80431 5.95028 4.90156 7.30079 4.90156Z" fill="#60391C"/>
<path d="M29.344 26.0476C29.344 23.7368 29.3789 20.4108 29.344 18.1V18.03C29.0645 14.984 26.3747 12.8133 23.4752 12.3232C23.0211 12.2532 22.7067 12.2182 22.2525 12.1831C19.947 12.1481 17.5016 12.9184 15.9296 14.6339C14.9515 15.7193 14.5672 16.8046 14.4275 17.3648C14.3926 17.5399 14.5323 17.7499 14.707 17.7149L18.899 17.6799C19.0038 17.6799 19.0736 17.6449 19.1435 17.5399C19.388 17.2248 20.0867 16.4195 21.6587 16.4545C23.1957 16.4895 24.2787 17.3648 24.5232 18.6252C24.5581 18.8703 24.5931 19.1154 24.5931 19.1154C24.5931 19.3604 24.5931 20.2357 24.5931 20.2357C24.5931 20.2357 23.4752 19.9556 22.6717 19.8856C21.0997 19.7456 19.5976 19.8506 18.1304 20.3758C15.755 21.251 14.4275 23.4567 14.3926 25.9075C14.3926 28.7434 16.1392 30.9491 18.899 31.5793C19.9819 31.8244 21.0997 31.9294 22.2176 31.9294C24.2437 31.9294 26.4445 31.6493 28.82 30.7391C29.2042 30.599 29.344 30.459 29.344 30.459C29.344 30.459 29.344 27.413 29.344 26.0476ZM24.5581 27.378C24.5581 27.9382 23.8944 28.1832 23.4403 28.2883C23.0211 28.3933 22.6368 28.4283 22.2176 28.4283C21.3093 28.4283 20.3312 28.2533 19.7024 27.5881C19.1435 26.9929 19.0387 26.0826 19.2134 25.2773C19.4928 23.9819 20.471 23.4917 21.6936 23.4217C22.4621 23.3517 23.2656 23.4917 23.8944 23.6668C24.2088 23.7718 24.5232 23.9469 24.5581 24.262C24.5931 24.6121 24.5581 27.1679 24.5581 27.378Z" fill="#60391C"/>
<path d="M60.0503 31.6501V14.1445C60.0503 14.0395 60.0852 13.9695 60.1551 13.8994C60.6442 13.5493 62.7052 12.2539 66.7225 12.1839C68.0151 12.1489 69.3076 12.3589 70.5303 12.7441C73.3598 13.6544 74.9318 15.8601 74.9668 18.801C75.0017 21.4618 74.9668 29.9345 74.9668 31.6151C74.9668 31.7901 74.827 31.8952 74.6524 31.8952H70.5303C70.3556 31.8952 70.2159 31.7551 70.2159 31.5801V19.5712C70.2159 15.8601 66.4431 16.4553 66.4431 16.4553C65.1505 16.6653 64.7313 17.0504 64.7313 18.661V31.5801C64.7313 31.7551 64.5916 31.8952 64.4169 31.8952H60.2599C60.19 31.9302 60.0503 31.7901 60.0503 31.6501Z" fill="#60391C"/>
<path d="M83.1761 31.966C81.3596 31.966 77.8663 31.2658 77.4471 26.6794C77.3772 26.0492 77.4471 9.31382 77.4471 6.86303C77.4471 6.68798 77.5868 6.58295 77.7615 6.58295H81.9185C82.0932 6.58295 82.2329 6.72299 82.2329 6.89805V11.9046C82.2329 12.0797 82.3727 12.2197 82.5473 12.2197H85.5516C85.7262 12.2197 85.866 12.3598 85.866 12.5348V16.281C85.866 16.4561 85.7262 16.5961 85.5865 16.5961H82.5823C82.4076 16.5961 82.3028 16.7362 82.3028 16.8762C82.3028 18.2417 82.3028 24.1235 82.3028 25.2789C82.3377 26.9945 83.1412 27.7647 84.818 27.7647C84.9926 27.7647 85.342 27.7647 85.5865 27.7297C85.7612 27.7297 85.9009 27.8697 85.9009 28.0448V31.4059C85.9009 31.5459 85.7961 31.6509 85.6913 31.686C85.2372 31.756 84.3289 31.966 83.1761 31.966Z" fill="#60391C"/>
<path d="M37.5531 31.966C35.7365 31.966 32.2432 31.2658 31.824 26.6794C31.7542 26.0492 31.824 9.31382 31.824 6.86303C31.824 6.68798 31.9638 6.58295 32.1384 6.58295H36.2955C36.4701 6.58295 36.6099 6.72299 36.6099 6.89805C36.6099 9.20878 36.5749 24.0535 36.6099 25.2439C36.6448 26.9594 37.4483 27.7297 39.1251 27.7297C39.2997 27.7297 39.6491 27.7297 39.8936 27.6947C40.0683 27.6947 40.208 27.8347 40.208 28.0098V31.3709C40.208 31.5109 40.1032 31.6159 39.9984 31.6509C39.5792 31.756 38.7059 31.966 37.5531 31.966Z" fill="#60391C"/>
<path d="M49.745 31.9314C49.2909 31.9314 48.9765 31.8964 48.5224 31.7914C45.6578 31.3012 42.968 29.1305 42.6885 26.0846C42.5837 24.9992 42.6187 20.2027 42.6536 18.9073C42.6885 15.8613 44.2256 13.6906 47.16 12.6753C48.208 12.3252 49.0114 12.1151 50.0594 12.1151C51.0375 12.1151 52.0157 12.2902 52.9938 12.5703C55.6487 13.4105 57.6399 15.6863 57.6399 18.5922V23.7738C57.6399 23.9489 57.5002 24.0889 57.3255 24.0889H47.684C47.5093 24.0889 47.4045 24.229 47.3696 24.369C47.3696 24.6491 47.3696 25.1043 47.4394 25.4544C47.684 26.7148 48.7669 27.59 50.269 27.59C51.841 27.6251 52.5746 26.8198 52.7842 26.5047C52.8541 26.4347 52.9239 26.3647 53.0287 26.3647L57.1858 26.3296C57.3954 26.3296 57.5351 26.5047 57.4653 26.6798C57.3255 27.2399 56.9762 28.3253 55.9631 29.4106C54.4959 31.1962 52.0157 31.9664 49.745 31.9314ZM50.0944 16.4215C49.2909 16.4215 48.6621 16.7366 48.173 17.2267C47.3346 18.032 47.2997 19.2224 47.3346 19.9226C47.3346 20.0977 47.4744 20.2027 47.649 20.2027H52.5746C52.7493 20.2027 52.8541 20.0626 52.889 19.9226C52.889 19.2574 52.8191 17.997 52.0157 17.2618C51.5965 16.8066 51.1423 16.4565 50.0944 16.4215Z" fill="#60391C"/>
<path d="M112.834 31.9314C112.38 31.9314 112.065 31.8964 111.611 31.7914C108.747 31.3012 106.057 29.1305 105.777 26.0846C105.673 24.9992 105.708 20.2027 105.742 18.9073C105.777 15.8613 107.314 13.6906 110.249 12.6753C111.297 12.3252 112.1 12.1151 113.148 12.1151C114.126 12.1151 115.105 12.2902 116.083 12.5703C118.738 13.4105 120.729 15.6863 120.729 18.5922V23.7738C120.729 23.9489 120.589 24.0889 120.414 24.0889H110.808C110.633 24.0889 110.528 24.229 110.493 24.369C110.493 24.6491 110.493 25.1043 110.563 25.4544C110.808 26.7148 111.891 27.59 113.393 27.59C114.965 27.6251 115.698 26.8198 115.908 26.5047C115.978 26.4347 116.048 26.3647 116.153 26.3647L120.31 26.3296C120.519 26.3296 120.659 26.5047 120.589 26.6798C120.449 27.2399 120.1 28.3253 119.087 29.4106C117.585 31.1962 115.105 31.9664 112.834 31.9314ZM113.183 16.4215C112.38 16.4215 111.751 16.7366 111.262 17.2267C110.423 18.032 110.389 19.2224 110.423 19.9226C110.423 20.0977 110.563 20.2027 110.738 20.2027H115.663C115.838 20.2027 115.943 20.0626 115.978 19.9226C115.978 19.2574 115.908 17.997 115.105 17.2618C114.685 16.8066 114.196 16.4565 113.183 16.4215Z" fill="#B84626"/>
<path d="M134.877 13.8654C133.305 13.2702 131.943 12.1499 130.965 10.7144C130.755 10.4343 130.371 10.5744 130.371 10.9595V12.1499H128.205C128.03 12.1499 127.891 12.0098 127.891 11.8348V6.8632C127.891 6.68814 127.751 6.5481 127.576 6.5481H123.419C123.245 6.5481 123.105 6.68814 123.105 6.82819C123.105 9.27897 123.035 26.0143 123.105 26.6445C123.524 31.231 127.017 31.9312 128.834 31.9312C129.987 31.9312 130.86 31.7211 131.244 31.6161C131.384 31.5811 131.454 31.476 131.454 31.336V27.9749C131.454 27.7999 131.314 27.6598 131.139 27.6598C130.895 27.6598 130.546 27.6948 130.371 27.6948C128.694 27.6948 127.891 26.8896 127.856 25.209C127.856 24.0537 127.856 18.1718 127.856 16.8064C127.856 16.6313 127.995 16.5263 128.135 16.5263H130.336V17.4366C130.336 17.7867 130.72 17.9617 130.93 17.6816C131.943 16.2812 133.305 15.2309 134.842 14.6357C135.192 14.4606 135.192 13.9705 134.877 13.8654Z" fill="#B84626"/>
<path d="M88.2764 31.685V14.1794C88.2764 14.0744 88.3113 14.0044 88.3812 13.9344C88.8702 13.5842 90.9313 12.2888 94.9486 12.2188C96.2411 12.1838 97.5337 12.3939 98.7563 12.779C101.586 13.6893 103.158 15.895 103.193 18.8359C103.228 21.4968 103.193 29.9695 103.193 31.65C103.193 31.825 103.053 31.9301 102.878 31.9301H98.7563C98.5817 31.9301 98.4419 31.79 98.4419 31.615V19.6062C98.4419 15.895 94.6691 16.4902 94.6691 16.4902C93.3766 16.7002 92.9574 17.0854 92.9574 18.6959V31.685C92.9574 31.8601 92.8177 32.0001 92.643 32.0001H88.5558C88.4161 31.9651 88.2764 31.8601 88.2764 31.685Z" fill="#B84626"/>
</svg>

